<svg xmlns="http://www.w3.org/2000/svg" xmlns:xlink="http://www.w3.org/1999/xlink" x="0" y="0" width="465" height="200" style="
        width:465px;
        height:200px;
        background: #FFF;
        fill: none;
">
        <svg xmlns="http://www.w3.org/2000/svg"/>

        <svg xmlns="http://www.w3.org/2000/svg" class="role-diagram-draw-area"><g class="shapes-region" style="stroke: black; fill: none;"><g class="composite-shape" data-amt="diagram/shapes/plot" transform="matrix(1,0,0,1,5,7.5)"><g><g><g class="test-ygi"><line x1="0" y1="111.04479398565441" x2="449" y2="111.04479398565441" fill="none" stroke="#c3c3c3" stroke-width="0.5"/></g></g><g><g class="test-xti" style="font-family: Asana-Math, Asana;"><line x1="0" y1="111.04479398565441" x2="445" y2="111.04479398565441" fill="none" stroke="rgb(50,50,50)" stroke-opacity="1" stroke-width="1"/><path d="M440,107.44479398565441 L448,111.04479398565441 L440,114.6447939856544 Z" stroke="none" stroke-width="1" fill="rgb(50,50,50)" fill-opacity="1"/></g><g class="test-yti" style="font-family: Asana-Math, Asana;"><line x1="211.05527762433752" y1="4" x2="211.05527762433752" y2="187" fill="none" stroke="rgb(50,50,50)" stroke-opacity="1" stroke-width="1"/><path d="M207.45527762433753,9 L211.05527762433752,1 L214.65527762433751,9 Z" stroke="none" stroke-width="1" fill="rgb(50,50,50)" fill-opacity="1"/></g><g class="test-plot-expression"><defs><clipPath id="cp6f04ydgha"><rect x="1" y="1" width="447" height="185"/></clipPath></defs><g clip-path="url(#cp6f04ydgha)"><path d=" M0.00,85.31 L0.50,84.94 L1.00,84.58 L1.50,84.22 L2.00,83.87 L2.50,83.52 L3.00,83.17 L3.50,82.84 L4.00,82.50 L4.51,82.17 L5.01,81.85 L5.51,81.53 L6.01,81.22 L6.51,80.91 L7.01,80.60 L7.51,80.31 L8.01,80.01 L8.51,79.73 L9.01,79.44 L9.51,79.17 L10.01,78.90 L10.51,78.63 L11.01,78.37 L11.51,78.12 L12.01,77.87 L12.51,77.62 L13.01,77.39 L13.52,77.16 L14.02,76.93 L14.52,76.71 L15.02,76.50 L15.52,76.29 L16.02,76.09 L16.52,75.89 L17.02,75.70 L17.52,75.52 L18.02,75.34 L18.52,75.17 L19.02,75.00 L19.52,74.85 L20.02,74.69 L20.52,74.55 L21.02,74.41 L21.52,74.27 L22.02,74.15 L22.53,74.02 L23.03,73.91 L23.53,73.80 L24.03,73.70 L24.53,73.61 L25.03,73.52 L25.53,73.43 L26.03,73.36 L26.53,73.29 L27.03,73.23 L27.53,73.17 L28.03,73.12 L28.53,73.08 L29.03,73.04 L29.53,73.01 L30.03,72.99 L30.53,72.97 L31.03,72.96 L31.54,72.96 L32.04,72.96 L32.54,72.97 L33.04,72.98 L33.54,73.01 L34.04,73.04 L34.54,73.07 L35.04,73.11 L35.54,73.16 L36.04,73.22 L36.54,73.28 L37.04,73.35 L37.54,73.42 L38.04,73.51 L38.54,73.59 L39.04,73.69 L39.54,73.79 L40.04,73.90 L40.55,74.01 L41.05,74.13 L41.55,74.26 L42.05,74.39 L42.55,74.53 L43.05,74.67 L43.55,74.83 L44.05,74.98 L44.55,75.15 L45.05,75.32 L45.55,75.49 L46.05,75.68 L46.55,75.87 L47.05,76.06 L47.55,76.26 L48.05,76.47 L48.55,76.68 L49.05,76.90 L49.56,77.13 L50.06,77.36 L50.56,77.59 L51.06,77.83 L51.56,78.08 L52.06,78.34 L52.56,78.60 L53.06,78.86 L53.56,79.13 L54.06,79.41 L54.56,79.69 L55.06,79.98 L55.56,80.27 L56.06,80.56 L56.56,80.87 L57.06,81.18 L57.56,81.49 L58.06,81.81 L58.57,82.13 L59.07,82.46 L59.57,82.79 L60.07,83.13 L60.57,83.47 L61.07,83.82 L61.57,84.17 L62.07,84.53 L62.57,84.89 L63.07,85.26 L63.57,85.63 L64.07,86.00 L64.57,86.38 L65.07,86.77 L65.57,87.15 L66.07,87.55 L66.57,87.94 L67.07,88.34 L67.58,88.75 L68.08,89.15 L68.58,89.57 L69.08,89.98 L69.58,90.40 L70.08,90.82 L70.58,91.25 L71.08,91.68 L71.58,92.11 L72.08,92.55 L72.58,92.98 L73.08,93.43 L73.58,93.87 L74.08,94.32 L74.58,94.77 L75.08,95.23 L75.58,95.68 L76.08,96.14 L76.59,96.60 L77.09,97.07 L77.59,97.53 L78.09,98.00 L78.59,98.48 L79.09,98.95 L79.59,99.42 L80.09,99.90 L80.59,100.38 L81.09,100.86 L81.59,101.35 L82.09,101.83 L82.59,102.32 L83.09,102.81 L83.59,103.30 L84.09,103.79 L84.59,104.28 L85.09,104.77 L85.60,105.27 L86.10,105.76 L86.60,106.26 L87.10,106.75 L87.60,107.25 L88.10,107.75 L88.60,108.25 L89.10,108.75 L89.60,109.25 L90.10,109.75 L90.60,110.25 L91.10,110.75 L91.60,111.25 L92.10,111.75 L92.60,112.25 L93.10,112.75 L93.60,113.25 L94.10,113.75 L94.61,114.25 L95.11,114.75 L95.61,115.25 L96.11,115.74 L96.61,116.24 L97.11,116.73 L97.61,117.23 L98.11,117.72 L98.61,118.21 L99.11,118.71 L99.61,119.20 L100.11,119.68 L100.61,120.17 L101.11,120.66 L101.61,121.14 L102.11,121.62 L102.61,122.10 L103.11,122.58 L103.62,123.05 L104.12,123.53 L104.62,124.00 L105.12,124.47 L105.62,124.94 L106.12,125.40 L106.62,125.86 L107.12,126.32 L107.62,126.78 L108.12,127.24 L108.62,127.69 L109.12,128.14 L109.62,128.58 L110.12,129.03 L110.62,129.46 L111.12,129.90 L111.62,130.33 L112.12,130.76 L112.63,131.19 L113.13,131.61 L113.63,132.03 L114.13,132.45 L114.63,132.86 L115.13,133.27 L115.63,133.67 L116.13,134.08 L116.63,134.47 L117.13,134.86 L117.63,135.25 L118.13,135.64 L118.63,136.02 L119.13,136.39 L119.63,136.76 L120.13,137.13 L120.63,137.49 L121.13,137.85 L121.64,138.21 L122.14,138.55 L122.64,138.90 L123.14,139.24 L123.64,139.57 L124.14,139.90 L124.64,140.22 L125.14,140.54 L125.64,140.86 L126.14,141.17 L126.64,141.47 L127.14,141.77 L127.64,142.06 L128.14,142.35 L128.64,142.63 L129.14,142.91 L129.64,143.18 L130.14,143.45 L130.65,143.71 L131.15,143.96 L131.65,144.21 L132.15,144.45 L132.65,144.69 L133.15,144.92 L133.65,145.15 L134.15,145.37 L134.65,145.58 L135.15,145.79 L135.65,145.99 L136.15,146.19 L136.65,146.38 L137.15,146.56 L137.65,146.74 L138.15,146.91 L138.65,147.08 L139.15,147.24 L139.66,147.39 L140.16,147.54 L140.66,147.68 L141.16,147.81 L141.66,147.94 L142.16,148.06 L142.66,148.17 L143.16,148.28 L143.66,148.38 L144.16,148.48 L144.66,148.57 L145.16,148.65 L145.66,148.73 L146.16,148.80 L146.66,148.86 L147.16,148.92 L147.66,148.97 L148.16,149.01 L148.67,149.05 L149.17,149.08 L149.67,149.10 L150.17,149.12 L150.67,149.13 L151.17,149.13 L151.67,149.13 L152.17,149.12 L152.67,149.11 L153.17,149.08 L153.67,149.05 L154.17,149.02 L154.67,148.98 L155.17,148.93 L155.67,148.87 L156.17,148.81 L156.67,148.74 L157.18,148.67 L157.68,148.59 L158.18,148.50 L158.68,148.41 L159.18,148.31 L159.68,148.20 L160.18,148.09 L160.68,147.97 L161.18,147.84 L161.68,147.71 L162.18,147.57 L162.68,147.42 L163.18,147.27 L163.68,147.11 L164.18,146.95 L164.68,146.78 L165.18,146.60 L165.68,146.42 L166.19,146.23 L166.69,146.04 L167.19,145.84 L167.69,145.63 L168.19,145.42 L168.69,145.20 L169.19,144.98 L169.69,144.75 L170.19,144.51 L170.69,144.27 L171.19,144.02 L171.69,143.77 L172.19,143.51 L172.69,143.24 L173.19,142.97 L173.69,142.70 L174.19,142.42 L174.69,142.13 L175.20,141.84 L175.70,141.54 L176.20,141.24 L176.70,140.93 L177.20,140.62 L177.70,140.30 L178.20,139.98 L178.70,139.65 L179.20,139.31 L179.70,138.98 L180.20,138.63 L180.70,138.29 L181.20,137.93 L181.70,137.58 L182.20,137.22 L182.70,136.85 L183.20,136.48 L183.70,136.10 L184.21,135.73 L184.71,135.34 L185.21,134.95 L185.71,134.56 L186.21,134.17 L186.71,133.77 L187.21,133.36 L187.71,132.96 L188.21,132.55 L188.71,132.13 L189.21,131.71 L189.71,131.29 L190.21,130.86 L190.71,130.43 L191.21,130.00 L191.71,129.57 L192.21,129.13 L192.71,128.68 L193.22,128.24 L193.72,127.79 L194.22,127.34 L194.72,126.89 L195.22,126.43 L195.72,125.97 L196.22,125.51 L196.72,125.04 L197.22,124.58 L197.72,124.11 L198.22,123.64 L198.72,123.16 L199.22,122.69 L199.72,122.21 L200.22,121.73 L200.72,121.25 L201.22,120.77 L201.72,120.28 L202.23,119.80 L202.73,119.31 L203.23,118.82 L203.73,118.33 L204.23,117.84 L204.73,117.34 L205.23,116.85 L205.73,116.35 L206.23,115.86 L206.73,115.36 L207.23,114.86 L207.73,114.36 L208.23,113.87 L208.73,113.37 L209.23,112.87 L209.73,112.37 L210.23,111.87 L210.73,111.37 L211.24,110.86 L211.74,110.36 L212.24,109.86 L212.74,109.36 L213.24,108.86 L213.74,108.36 L214.24,107.87 L214.74,107.37 L215.24,106.87 L215.74,106.37 L216.24,105.88 L216.74,105.38 L217.24,104.89 L217.74,104.39 L218.24,103.90 L218.74,103.41 L219.24,102.92 L219.74,102.43 L220.25,101.94 L220.75,101.46 L221.25,100.97 L221.75,100.49 L222.25,100.01 L222.75,99.53 L223.25,99.06 L223.75,98.58 L224.25,98.11 L224.75,97.64 L225.25,97.18 L225.75,96.71 L226.25,96.25 L226.75,95.79 L227.25,95.33 L227.75,94.88 L228.25,94.42 L228.75,93.98 L229.26,93.53 L229.76,93.09 L230.26,92.65 L230.76,92.21 L231.26,91.78 L231.76,91.35 L232.26,90.92 L232.76,90.50 L233.26,90.08 L233.76,89.66 L234.26,89.25 L234.76,88.84 L235.26,88.44 L235.76,88.03 L236.26,87.64 L236.76,87.24 L237.26,86.86 L237.76,86.47 L238.27,86.09 L238.77,85.71 L239.27,85.34 L239.77,84.98 L240.27,84.61 L240.77,84.26 L241.27,83.90 L241.77,83.55 L242.27,83.21 L242.77,82.87 L243.27,82.54 L243.77,82.21 L244.27,81.88 L244.77,81.56 L245.27,81.25 L245.77,80.94 L246.27,80.63 L246.77,80.34 L247.28,80.04 L247.78,79.75 L248.28,79.47 L248.78,79.19 L249.28,78.92 L249.78,78.66 L250.28,78.40 L250.78,78.14 L251.28,77.89 L251.78,77.65 L252.28,77.41 L252.78,77.18 L253.28,76.95 L253.78,76.73 L254.28,76.52 L254.78,76.31 L255.28,76.11 L255.78,75.91 L256.29,75.72 L256.79,75.54 L257.29,75.36 L257.79,75.19 L258.29,75.02 L258.79,74.86 L259.29,74.71 L259.79,74.56 L260.29,74.42 L260.79,74.29 L261.29,74.16 L261.79,74.04 L262.29,73.92 L262.79,73.81 L263.29,73.71 L263.79,73.61 L264.29,73.53 L264.79,73.44 L265.30,73.37 L265.80,73.30 L266.30,73.23 L266.80,73.18 L267.30,73.13 L267.80,73.08 L268.30,73.04 L268.80,73.01 L269.30,72.99 L269.80,72.97 L270.30,72.96 L270.80,72.96 L271.30,72.96 L271.80,72.97 L272.30,72.98 L272.80,73.00 L273.30,73.03 L273.80,73.07 L274.31,73.11 L274.81,73.16 L275.31,73.21 L275.81,73.27 L276.31,73.34 L276.81,73.42 L277.31,73.50 L277.81,73.58 L278.31,73.68 L278.81,73.78 L279.31,73.88 L279.81,74.00 L280.31,74.12 L280.81,74.24 L281.31,74.38 L281.81,74.51 L282.31,74.66 L282.81,74.81 L283.32,74.97 L283.82,75.13 L284.32,75.30 L284.82,75.48 L285.32,75.66 L285.82,75.85 L286.32,76.04 L286.82,76.24 L287.32,76.45 L287.82,76.66 L288.32,76.88 L288.82,77.10 L289.32,77.33 L289.82,77.57 L290.32,77.81 L290.82,78.06 L291.32,78.31 L291.82,78.57 L292.33,78.83 L292.83,79.10 L293.33,79.38 L293.83,79.66 L294.33,79.95 L294.83,80.24 L295.33,80.53 L295.83,80.84 L296.33,81.14 L296.83,81.46 L297.33,81.78 L297.83,82.10 L298.33,82.43 L298.83,82.76 L299.33,83.10 L299.83,83.44 L300.33,83.79 L300.84,84.14 L301.34,84.49 L301.84,84.86 L302.34,85.22 L302.84,85.59 L303.34,85.97 L303.84,86.34 L304.34,86.73 L304.84,87.12 L305.34,87.51 L305.84,87.90 L306.34,88.30 L306.84,88.71 L307.34,89.11 L307.84,89.52 L308.34,89.94 L308.84,90.36 L309.34,90.78 L309.85,91.20 L310.35,91.63 L310.85,92.07 L311.35,92.50 L311.85,92.94 L312.35,93.38 L312.85,93.83 L313.35,94.28 L313.85,94.73 L314.35,95.18 L314.85,95.64 L315.35,96.10 L315.85,96.56 L316.35,97.02 L316.85,97.49 L317.35,97.96 L317.85,98.43 L318.35,98.90 L318.86,99.38 L319.36,99.85 L319.86,100.33 L320.36,100.82 L320.86,101.30 L321.36,101.78 L321.86,102.27 L322.36,102.76 L322.86,103.25 L323.36,103.74 L323.86,104.23 L324.36,104.72 L324.86,105.22 L325.36,105.71 L325.86,106.21 L326.36,106.70 L326.86,107.20 L327.36,107.70 L327.87,108.20 L328.37,108.70 L328.87,109.20 L329.37,109.70 L329.87,110.20 L330.37,110.70 L330.87,111.20 L331.37,111.70 L331.87,112.20 L332.37,112.70 L332.87,113.20 L333.37,113.70 L333.87,114.20 L334.37,114.70 L334.87,115.20 L335.37,115.69 L335.87,116.19 L336.37,116.69 L336.88,117.18 L337.38,117.67 L337.88,118.17 L338.38,118.66 L338.88,119.15 L339.38,119.63 L339.88,120.12 L340.38,120.61 L340.88,121.09 L341.38,121.57 L341.88,122.05 L342.38,122.53 L342.88,123.01 L343.38,123.48 L343.88,123.95 L344.38,124.42 L344.88,124.89 L345.38,125.36 L345.89,125.82 L346.39,126.28 L346.89,126.74 L347.39,127.19 L347.89,127.64 L348.39,128.09 L348.89,128.54 L349.39,128.98 L349.89,129.42 L350.39,129.86 L350.89,130.29 L351.39,130.72 L351.89,131.15 L352.39,131.57 L352.89,131.99 L353.39,132.41 L353.89,132.82 L354.39,133.23 L354.90,133.63 L355.40,134.04 L355.90,134.43 L356.40,134.83 L356.90,135.21 L357.40,135.60 L357.90,135.98 L358.40,136.36 L358.90,136.73 L359.40,137.10 L359.90,137.46 L360.40,137.82 L360.90,138.17 L361.40,138.52 L361.90,138.86 L362.40,139.20 L362.90,139.54 L363.40,139.87 L363.91,140.19 L364.41,140.51 L364.91,140.83 L365.41,141.14 L365.91,141.44 L366.41,141.74 L366.91,142.03 L367.41,142.32 L367.91,142.60 L368.41,142.88 L368.91,143.15 L369.41,143.42 L369.91,143.68 L370.41,143.94 L370.91,144.19 L371.41,144.43 L371.91,144.67 L372.41,144.90 L372.92,145.13 L373.42,145.35 L373.92,145.56 L374.42,145.77 L374.92,145.97 L375.42,146.17 L375.92,146.36 L376.42,146.54 L376.92,146.72 L377.42,146.89 L377.92,147.06 L378.42,147.22 L378.92,147.37 L379.42,147.52 L379.92,147.66 L380.42,147.80 L380.92,147.93 L381.42,148.05 L381.93,148.16 L382.43,148.27 L382.93,148.37 L383.43,148.47 L383.93,148.56 L384.43,148.64 L384.93,148.72 L385.43,148.79 L385.93,148.85 L386.43,148.91 L386.93,148.96 L387.43,149.01 L387.93,149.04 L388.43,149.07 L388.93,149.10 L389.43,149.12 L389.93,149.13 L390.43,149.13 L390.94,149.13 L391.44,149.12 L391.94,149.11 L392.44,149.09 L392.94,149.06 L393.44,149.02 L393.94,148.98 L394.44,148.93 L394.94,148.88 L395.44,148.82 L395.94,148.75 L396.44,148.68 L396.94,148.60 L397.44,148.51 L397.94,148.42 L398.44,148.32 L398.94,148.21 L399.44,148.10 L399.95,147.98 L400.45,147.85 L400.95,147.72 L401.45,147.58 L401.95,147.44 L402.45,147.29 L402.95,147.13 L403.45,146.97 L403.95,146.80 L404.45,146.62 L404.95,146.44 L405.45,146.25 L405.95,146.06 L406.45,145.86 L406.95,145.65 L407.45,145.44 L407.95,145.22 L408.45,145.00 L408.96,144.77 L409.46,144.53 L409.96,144.29 L410.46,144.04 L410.96,143.79 L411.46,143.53 L411.96,143.27 L412.46,143.00 L412.96,142.72 L413.46,142.44 L413.96,142.16 L414.46,141.87 L414.96,141.57 L415.46,141.27 L415.96,140.96 L416.46,140.65 L416.96,140.33 L417.46,140.01 L417.97,139.68 L418.47,139.35 L418.97,139.01 L419.47,138.67 L419.97,138.32 L420.47,137.97 L420.97,137.61 L421.47,137.25 L421.97,136.89 L422.47,136.52 L422.97,136.14 L423.47,135.76 L423.97,135.38 L424.47,134.99 L424.97,134.60 L425.47,134.21 L425.97,133.81 L426.47,133.40 L426.98,133.00 L427.48,132.59 L427.98,132.17 L428.48,131.75 L428.98,131.33 L429.48,130.91 L429.98,130.48 L430.48,130.05 L430.98,129.61 L431.48,129.17 L431.98,128.73 L432.48,128.28 L432.98,127.84 L433.48,127.39 L433.98,126.93 L434.48,126.48 L434.98,126.02 L435.48,125.56 L435.99,125.09 L436.49,124.62 L436.99,124.16 L437.49,123.68 L437.99,123.21 L438.49,122.74 L438.99,122.26 L439.49,121.78 L439.99,121.30 L440.49,120.82 L440.99,120.33 L441.49,119.84 L441.99,119.36 L442.49,118.87 L442.99,118.38 L443.49,117.89 L443.99,117.39 L444.49,116.90 L445.00,116.40 L445.50,115.91 L446.00,115.41 L446.50,114.91 L447.00,114.41 L447.50,113.92 L448.00,113.42 L448.50,112.92 L449.00,112.42" style="stroke-width: 2; stroke: #4a90e2; stroke-opacity: 0.8;"/></g></g><g class="test-xtl" style="font-family: &quot;Open Sans&quot;, verdana, arial, sans-serif;"/><g class="test-ytl" style="font-family: &quot;Open Sans&quot;, verdana, arial, sans-serif;"/><rect class="real" x="1" y="1" width="447" height="185" style="fill: transparent; stroke: none;"/></g></g></g><g class="arrow-line"><path class="connection real" stroke-dasharray="6 6" d="  M5,78.5 L452,78.5" style="stroke: rgb(0, 0, 0); stroke-width: 1; fill: none; fill-opacity: 1;"/></g><g class="arrow-line"><path class="connection real" stroke-dasharray="6 6" d="  M3,157.5 L453,157.5" style="stroke: rgb(0, 0, 0); stroke-width: 1; fill: none; fill-opacity: 1;"/></g><g class="arrow-line"><path class="connection real" stroke-dasharray="2.25 3.685" d="  M156,118.5 L156,156.5" style="stroke: rgb(0, 0, 0); stroke-width: 2; fill: none; fill-opacity: 1;"/></g><g class="arrow-line"><path class="connection real" stroke-dasharray="2.25 3.685" d="  M275,78.5 L275,116.5" style="stroke: rgb(0, 0, 0); stroke-width: 2; fill: none; fill-opacity: 1;"/></g><g/></g><g/><g/><g/></svg>
        <svg xmlns="http://www.w3.org/2000/svg" xmlns:xlink="http://www.w3.org/1999/xlink" width="463" height="198" style="width:463px;height:198px;font-family:Asana-Math, Asana;background:#FFF;"><g><g><g><g transform="matrix(1,0,0,1,258,55)"><path transform="matrix(0.017,0,0,-0.017,0,0)" d="M-7 -180C-8 -187 -8 -193 -8 -198C-8 -241 29 -276 74 -276C180 -276 290 -152 349 33L490 473L479 482C450 471 427 465 405 463L370 331C358 284 323 211 290 162C255 111 206 67 184 67C172 67 163 90 164 115L180 322C182 353 184 391 184 419C184 464 177 482 160 482C147 482 133 475 85 442L3 386L14 368L64 398C69 401 80 410 89 410C103 410 111 391 111 358C111 357 111 351 110 343L93 100L92 60C92 18 110 -11 135 -11C172 -11 256 74 331 187L282 16C231 -161 181 -234 111 -234C76 -234 49 -207 49 -172C49 -167 50 -159 51 -150L41 -146Z" stroke="rgb(0,0,0)" stroke-opacity="1" stroke-width="8" fill="rgb(0,0,0)" fill-opacity="1"></path></g></g><g><g transform="matrix(1,0,0,1,271.578125,55)"><path transform="matrix(0.017,0,0,-0.017,0,0)" d="M604 347L604 406L65 406L65 347ZM604 134L604 193L65 193L65 134Z" stroke="rgb(0,0,0)" stroke-opacity="1" stroke-width="8" fill="rgb(0,0,0)" fill-opacity="1"></path></g></g><g><g><g transform="matrix(1,0,0,1,288.03125,55)"><path transform="matrix(0.017,0,0,-0.017,0,0)" d="M41 143C41 74 38 44 30 4C82 -13 121 -20 167 -20C298 -20 391 50 391 148C391 321 107 228 107 358C107 408 142 436 203 436C270 436 321 401 321 354L321 331L349 331C350 389 351 413 354 444C301 462 265 469 224 469C108 469 37 414 37 324C37 276 59 242 105 221C223 169 317 195 317 109C317 55 267 17 196 17C123 17 71 52 71 102L71 143ZM611 465L602 469C551 448 499 434 446 428L446 400L483 400C523 400 527 393 527 327L527 102C527 39 524 32 490 30L444 27L444 -3C544 0 544 0 569 0C594 0 594 0 694 -3L694 27L648 30C614 32 611 39 611 102ZM565 687C535 687 509 661 509 631C509 602 535 576 564 576C593 576 620 602 620 631C620 659 593 687 565 687ZM1123 -3C1184 0 1185 0 1202 0C1216 0 1216 0 1285 -3L1285 27L1244 30C1210 32 1207 38 1207 102L1207 295C1207 412 1152 469 1040 469C1003 469 982 462 961 444L885 378L885 465L876 469C825 448 773 434 720 428L720 400L757 400C797 400 801 393 801 327L801 102C801 39 798 32 764 30L719 27L719 -3C787 -1 814 0 843 0C872 0 899 -1 967 -3L967 27L922 30C888 32 885 39 885 102L885 314C885 359 951 408 1012 408C1079 408 1123 358 1123 281Z" stroke="rgb(0,0,0)" stroke-opacity="1" stroke-width="8" fill="rgb(0,0,0)" fill-opacity="1"></path></g></g></g><g><g transform="matrix(1,0,0,1,313.421875,55)"><path transform="matrix(0.017,0,0,-0.017,0,0)" d="M9 1C24 -7 40 -11 52 -11C85 -11 124 18 155 65L231 182L242 113C255 28 278 -11 314 -11C336 -11 368 6 400 35L449 79L440 98C404 68 379 53 363 53C348 53 335 63 325 83C316 102 305 139 300 168L282 269L317 318C364 383 391 406 422 406C438 406 450 398 455 383L469 387L484 472C472 479 463 482 454 482C414 482 374 446 312 354L275 299L269 347C257 446 230 482 171 482C145 482 123 474 114 461L56 378L73 368C103 402 123 416 142 416C175 416 197 375 214 277L225 215L185 153C142 86 108 54 80 54C65 54 54 58 52 63L41 91L21 88C21 53 13 27 9 1Z" stroke="rgb(0,0,0)" stroke-opacity="1" stroke-width="8" fill="rgb(0,0,0)" fill-opacity="1"></path></g></g></g></g><g><g><g><g transform="matrix(1,0,0,1,195,18)"><path transform="matrix(0.017,0,0,-0.017,0,0)" d="M-7 -180C-8 -187 -8 -193 -8 -198C-8 -241 29 -276 74 -276C180 -276 290 -152 349 33L490 473L479 482C450 471 427 465 405 463L370 331C358 284 323 211 290 162C255 111 206 67 184 67C172 67 163 90 164 115L180 322C182 353 184 391 184 419C184 464 177 482 160 482C147 482 133 475 85 442L3 386L14 368L64 398C69 401 80 410 89 410C103 410 111 391 111 358C111 357 111 351 110 343L93 100L92 60C92 18 110 -11 135 -11C172 -11 256 74 331 187L282 16C231 -161 181 -234 111 -234C76 -234 49 -207 49 -172C49 -167 50 -159 51 -150L41 -146Z" stroke="rgb(0,0,0)" stroke-opacity="1" stroke-width="8" fill="rgb(0,0,0)" fill-opacity="1"></path></g></g></g></g><g><g><g><g transform="matrix(1,0,0,1,437,111)"><path transform="matrix(0.017,0,0,-0.017,0,0)" d="M9 1C24 -7 40 -11 52 -11C85 -11 124 18 155 65L231 182L242 113C255 28 278 -11 314 -11C336 -11 368 6 400 35L449 79L440 98C404 68 379 53 363 53C348 53 335 63 325 83C316 102 305 139 300 168L282 269L317 318C364 383 391 406 422 406C438 406 450 398 455 383L469 387L484 472C472 479 463 482 454 482C414 482 374 446 312 354L275 299L269 347C257 446 230 482 171 482C145 482 123 474 114 461L56 378L73 368C103 402 123 416 142 416C175 416 197 375 214 277L225 215L185 153C142 86 108 54 80 54C65 54 54 58 52 63L41 91L21 88C21 53 13 27 9 1Z" stroke="rgb(0,0,0)" stroke-opacity="1" stroke-width="8" fill="rgb(0,0,0)" fill-opacity="1"></path></g></g></g></g><g><g><g><g transform="matrix(1,0,0,1,136,116)"><path transform="matrix(0.017,0,0,-0.017,0,0)" d="M555 243L555 299L51 299L51 243Z" stroke="rgb(0,0,0)" stroke-opacity="1" stroke-width="8" fill="rgb(0,0,0)" fill-opacity="1"></path></g></g><g><g transform="matrix(1,0,0,1,146.296875,116)"><path transform="matrix(0.017,0,0,-0.017,0,0)" d="M525 42C469 42 464 125 465 166C466 251 494 333 537 405L599 418C602 435 608 452 613 467C459 461 300 463 145 466C80 467 66 389 47 340C46 332 59 331 63 328L63 332C106 395 130 405 205 405L228 405C188 266 161 129 98 -2L98 -12C118 -6 153 1 170 13C211 141 240 274 268 405L495 405C438 318 397 213 395 108C395 59 410 -15 471 -15C512 -15 568 25 598 51L598 66L586 66L586 67C568 56 548 42 525 42Z" stroke="rgb(0,0,0)" stroke-opacity="1" stroke-width="8" fill="rgb(0,0,0)" fill-opacity="1"></path></g></g><g><g transform="matrix(1,0,0,1,160.796875,116)"><path transform="matrix(0.017,0,0,-0.017,0,0)" d="M297 714L242 714L-37 -169L18 -169Z" stroke="rgb(0,0,0)" stroke-opacity="1" stroke-width="8" fill="rgb(0,0,0)" fill-opacity="1"></path></g></g><g><g transform="matrix(1,0,0,1,169.0625,116)"><path transform="matrix(0.017,0,0,-0.017,0,0)" d="M16 23L16 -3C203 -3 203 0 239 0C275 0 275 -3 468 -3L468 82C353 77 307 81 122 77L304 270C401 373 431 428 431 503C431 618 353 689 226 689C154 689 105 669 56 619L39 483L68 483L81 529C97 587 133 612 200 612C286 612 341 558 341 473C341 398 299 324 186 204Z" stroke="rgb(0,0,0)" stroke-opacity="1" stroke-width="8" fill="rgb(0,0,0)" fill-opacity="1"></path></g></g></g></g><g><g><g><g transform="matrix(1,0,0,1,259,137)"><path transform="matrix(0.017,0,0,-0.017,0,0)" d="M525 42C469 42 464 125 465 166C466 251 494 333 537 405L599 418C602 435 608 452 613 467C459 461 300 463 145 466C80 467 66 389 47 340C46 332 59 331 63 328L63 332C106 395 130 405 205 405L228 405C188 266 161 129 98 -2L98 -12C118 -6 153 1 170 13C211 141 240 274 268 405L495 405C438 318 397 213 395 108C395 59 410 -15 471 -15C512 -15 568 25 598 51L598 66L586 66L586 67C568 56 548 42 525 42Z" stroke="rgb(0,0,0)" stroke-opacity="1" stroke-width="8" fill="rgb(0,0,0)" fill-opacity="1"></path></g></g><g><g transform="matrix(1,0,0,1,273.5,137)"><path transform="matrix(0.017,0,0,-0.017,0,0)" d="M297 714L242 714L-37 -169L18 -169Z" stroke="rgb(0,0,0)" stroke-opacity="1" stroke-width="8" fill="rgb(0,0,0)" fill-opacity="1"></path></g></g><g><g transform="matrix(1,0,0,1,281.765625,137)"><path transform="matrix(0.017,0,0,-0.017,0,0)" d="M16 23L16 -3C203 -3 203 0 239 0C275 0 275 -3 468 -3L468 82C353 77 307 81 122 77L304 270C401 373 431 428 431 503C431 618 353 689 226 689C154 689 105 669 56 619L39 483L68 483L81 529C97 587 133 612 200 612C286 612 341 558 341 473C341 398 299 324 186 204Z" stroke="rgb(0,0,0)" stroke-opacity="1" stroke-width="8" fill="rgb(0,0,0)" fill-opacity="1"></path></g></g></g></g><g><g><g><g transform="matrix(1,0,0,1,82,135)"><path transform="matrix(0.017,0,0,-0.017,0,0)" d="M555 243L555 299L51 299L51 243Z" stroke="rgb(0,0,0)" stroke-opacity="1" stroke-width="8" fill="rgb(0,0,0)" fill-opacity="1"></path></g></g><g><g transform="matrix(1,0,0,1,92.296875,135)"><path transform="matrix(0.017,0,0,-0.017,0,0)" d="M525 42C469 42 464 125 465 166C466 251 494 333 537 405L599 418C602 435 608 452 613 467C459 461 300 463 145 466C80 467 66 389 47 340C46 332 59 331 63 328L63 332C106 395 130 405 205 405L228 405C188 266 161 129 98 -2L98 -12C118 -6 153 1 170 13C211 141 240 274 268 405L495 405C438 318 397 213 395 108C395 59 410 -15 471 -15C512 -15 568 25 598 51L598 66L586 66L586 67C568 56 548 42 525 42Z" stroke="rgb(0,0,0)" stroke-opacity="1" stroke-width="8" fill="rgb(0,0,0)" fill-opacity="1"></path></g></g></g></g><g><g><g><g transform="matrix(1,0,0,1,330,136)"><path transform="matrix(0.017,0,0,-0.017,0,0)" d="M525 42C469 42 464 125 465 166C466 251 494 333 537 405L599 418C602 435 608 452 613 467C459 461 300 463 145 466C80 467 66 389 47 340C46 332 59 331 63 328L63 332C106 395 130 405 205 405L228 405C188 266 161 129 98 -2L98 -12C118 -6 153 1 170 13C211 141 240 274 268 405L495 405C438 318 397 213 395 108C395 59 410 -15 471 -15C512 -15 568 25 598 51L598 66L586 66L586 67C568 56 548 42 525 42Z" stroke="rgb(0,0,0)" stroke-opacity="1" stroke-width="8" fill="rgb(0,0,0)" fill-opacity="1"></path></g></g></g></g><g><g><g><g transform="matrix(1,0,0,1,218,136)"><path transform="matrix(0.017,0,0,-0.017,0,0)" d="M748 425C748 603 644 706 464 706C227 706 53 523 53 272C53 83 147 -18 323 -18C595 -18 748 207 748 425ZM660 409C660 221 571 24 360 24C216 24 141 110 141 277C141 425 199 664 433 664C549 664 660 610 660 409Z" stroke="rgb(0,0,0)" stroke-opacity="1" stroke-width="8" fill="rgb(0,0,0)" fill-opacity="1"></path></g></g></g></g><g><g><g><g transform="matrix(1,0,0,1,202,76)"><path transform="matrix(0.017,0,0,-0.017,0,0)" d="M418 -3L418 27L366 30C311 33 301 44 301 96L301 700L60 598L67 548L217 614L217 96C217 44 206 33 152 30L96 27L96 -3C250 0 250 0 261 0C292 0 402 -3 418 -3Z" stroke="rgb(0,0,0)" stroke-opacity="1" stroke-width="8" fill="rgb(0,0,0)" fill-opacity="1"></path></g></g></g></g><g><g><g><g transform="matrix(1,0,0,1,194,174)"><path transform="matrix(0.017,0,0,-0.017,0,0)" d="M555 243L555 299L51 299L51 243Z" stroke="rgb(0,0,0)" stroke-opacity="1" stroke-width="8" fill="rgb(0,0,0)" fill-opacity="1"></path></g></g><g><g transform="matrix(1,0,0,1,204.296875,174)"><path transform="matrix(0.017,0,0,-0.017,0,0)" d="M418 -3L418 27L366 30C311 33 301 44 301 96L301 700L60 598L67 548L217 614L217 96C217 44 206 33 152 30L96 27L96 -3C250 0 250 0 261 0C292 0 402 -3 418 -3Z" stroke="rgb(0,0,0)" stroke-opacity="1" stroke-width="8" fill="rgb(0,0,0)" fill-opacity="1"></path></g></g></g></g></svg>
</svg>