<svg xmlns="http://www.w3.org/2000/svg" xmlns:xlink="http://www.w3.org/1999/xlink" x="0" y="0" width="476" height="250" style="
        width:476px;
        height:250px;
        background: #FFF;
        fill: none;
">
        <svg xmlns="http://www.w3.org/2000/svg"/>

        <svg xmlns="http://www.w3.org/2000/svg" class="role-diagram-draw-area"><g class="shapes-region" style="stroke: black; fill: none;"><g class="composite-shape" data-amt="diagram/shapes/plot" transform="matrix(1,0,0,1,20,19)"><g><g><g class="test-xgi"><line x1="206.99999999999997" y1="0" x2="206.99999999999997" y2="200" fill="none" stroke="#c3c3c3" stroke-width="0.5"/></g></g><g><g class="test-xti" style="font-family: Asana-Math, Asana;"><line x1="0" y1="106" x2="426" y2="106" fill="none" stroke="rgb(0,0,0)" stroke-opacity="1" stroke-width="1"/><path d="M421,102.4 L429,106 L421,109.6 Z" stroke="none" stroke-width="1" fill="rgb(0,0,0)" fill-opacity="1"/></g><g class="test-yti" style="font-family: Asana-Math, Asana;"><line x1="207" y1="4" x2="207" y2="200" fill="none" stroke="rgb(50,50,50)" stroke-opacity="1" stroke-width="1"/><path d="M203.4,9 L207,1 L210.6,9 Z" stroke="none" stroke-width="1" fill="rgb(50,50,50)" fill-opacity="1"/></g><g class="test-plot-expression"><defs><clipPath id="cp6m2xtfvna"><rect x="1" y="1" width="428" height="198"/></clipPath></defs><g clip-path="url(#cp6m2xtfvna)"><path d=" M0.00,97.06 L0.50,97.48 L1.00,97.90 L1.50,98.32 L2.00,98.74 L2.50,99.16 L3.00,99.59 L3.50,100.01 L4.00,100.44 L4.51,100.86 L5.01,101.29 L5.51,101.72 L6.01,102.15 L6.51,102.57 L7.01,103.00 L7.51,103.43 L8.01,103.86 L8.51,104.29 L9.01,104.72 L9.51,105.15 L10.01,105.59 L10.51,106.02 L11.01,106.45 L11.51,106.88 L12.01,107.31 L12.51,107.74 L13.02,108.17 L13.52,108.60 L14.02,109.03 L14.52,109.46 L15.02,109.89 L15.52,110.32 L16.02,110.74 L16.52,111.17 L17.02,111.60 L17.52,112.02 L18.02,112.45 L18.52,112.87 L19.02,113.29 L19.52,113.71 L20.02,114.13 L20.52,114.55 L21.02,114.97 L21.53,115.39 L22.03,115.80 L22.53,116.22 L23.03,116.63 L23.53,117.04 L24.03,117.45 L24.53,117.86 L25.03,118.26 L25.53,118.67 L26.03,119.07 L26.53,119.47 L27.03,119.87 L27.53,120.26 L28.03,120.66 L28.53,121.05 L29.03,121.44 L29.53,121.83 L30.03,122.21 L30.54,122.60 L31.04,122.98 L31.54,123.36 L32.04,123.73 L32.54,124.11 L33.04,124.48 L33.54,124.85 L34.04,125.21 L34.54,125.57 L35.04,125.93 L35.54,126.29 L36.04,126.64 L36.54,127.00 L37.04,127.34 L37.54,127.69 L38.04,128.03 L38.54,128.37 L39.05,128.70 L39.55,129.04 L40.05,129.37 L40.55,129.69 L41.05,130.01 L41.55,130.33 L42.05,130.65 L42.55,130.96 L43.05,131.27 L43.55,131.57 L44.05,131.87 L44.55,132.17 L45.05,132.46 L45.55,132.75 L46.05,133.04 L46.55,133.32 L47.05,133.60 L47.56,133.87 L48.06,134.14 L48.56,134.40 L49.06,134.67 L49.56,134.92 L50.06,135.18 L50.56,135.43 L51.06,135.67 L51.56,135.91 L52.06,136.15 L52.56,136.38 L53.06,136.61 L53.56,136.83 L54.06,137.05 L54.56,137.26 L55.06,137.47 L55.56,137.68 L56.07,137.88 L56.57,138.07 L57.07,138.26 L57.57,138.45 L58.07,138.63 L58.57,138.81 L59.07,138.98 L59.57,139.15 L60.07,139.31 L60.57,139.47 L61.07,139.63 L61.57,139.77 L62.07,139.92 L62.57,140.06 L63.07,140.19 L63.57,140.32 L64.07,140.44 L64.58,140.56 L65.08,140.68 L65.58,140.79 L66.08,140.89 L66.58,140.99 L67.08,141.08 L67.58,141.17 L68.08,141.26 L68.58,141.33 L69.08,141.41 L69.58,141.48 L70.08,141.54 L70.58,141.60 L71.08,141.65 L71.58,141.70 L72.08,141.74 L72.58,141.78 L73.08,141.81 L73.59,141.84 L74.09,141.86 L74.59,141.88 L75.09,141.89 L75.59,141.90 L76.09,141.90 L76.59,141.90 L77.09,141.89 L77.59,141.87 L78.09,141.85 L78.59,141.83 L79.09,141.80 L79.59,141.77 L80.09,141.73 L80.59,141.68 L81.09,141.63 L81.59,141.58 L82.10,141.52 L82.60,141.45 L83.10,141.38 L83.60,141.31 L84.10,141.22 L84.60,141.14 L85.10,141.05 L85.60,140.95 L86.10,140.85 L86.60,140.75 L87.10,140.63 L87.60,140.52 L88.10,140.40 L88.60,140.27 L89.10,140.14 L89.60,140.01 L90.10,139.86 L90.61,139.72 L91.11,139.57 L91.61,139.41 L92.11,139.25 L92.61,139.09 L93.11,138.92 L93.61,138.74 L94.11,138.57 L94.61,138.38 L95.11,138.19 L95.61,138.00 L96.11,137.80 L96.61,137.60 L97.11,137.39 L97.61,137.18 L98.11,136.97 L98.61,136.75 L99.12,136.52 L99.62,136.29 L100.12,136.06 L100.62,135.82 L101.12,135.58 L101.62,135.33 L102.12,135.08 L102.62,134.83 L103.12,134.57 L103.62,134.31 L104.12,134.04 L104.62,133.77 L105.12,133.49 L105.62,133.21 L106.12,132.93 L106.62,132.64 L107.12,132.35 L107.63,132.06 L108.13,131.76 L108.63,131.46 L109.13,131.15 L109.63,130.84 L110.13,130.53 L110.63,130.21 L111.13,129.89 L111.63,129.57 L112.13,129.24 L112.63,128.91 L113.13,128.58 L113.63,128.24 L114.13,127.90 L114.63,127.56 L115.13,127.21 L115.63,126.87 L116.14,126.51 L116.64,126.16 L117.14,125.80 L117.64,125.44 L118.14,125.08 L118.64,124.71 L119.14,124.34 L119.64,123.97 L120.14,123.59 L120.64,123.22 L121.14,122.84 L121.64,122.46 L122.14,122.07 L122.64,121.69 L123.14,121.30 L123.64,120.91 L124.14,120.51 L124.64,120.12 L125.15,119.72 L125.65,119.32 L126.15,118.92 L126.65,118.52 L127.15,118.11 L127.65,117.71 L128.15,117.30 L128.65,116.89 L129.15,116.48 L129.65,116.06 L130.15,115.65 L130.65,115.23 L131.15,114.82 L131.65,114.40 L132.15,113.98 L132.65,113.56 L133.15,113.13 L133.66,112.71 L134.16,112.29 L134.66,111.86 L135.16,111.44 L135.66,111.01 L136.16,110.58 L136.66,110.16 L137.16,109.73 L137.66,109.30 L138.16,108.87 L138.66,108.44 L139.16,108.01 L139.66,107.58 L140.16,107.15 L140.66,106.72 L141.16,106.29 L141.66,105.86 L142.17,105.43 L142.67,104.99 L143.17,104.56 L143.67,104.13 L144.17,103.70 L144.67,103.27 L145.17,102.84 L145.67,102.41 L146.17,101.99 L146.67,101.56 L147.17,101.13 L147.67,100.70 L148.17,100.28 L148.67,99.85 L149.17,99.43 L149.67,99.01 L150.17,98.58 L150.68,98.16 L151.18,97.74 L151.68,97.32 L152.18,96.91 L152.68,96.49 L153.18,96.08 L153.68,95.66 L154.18,95.25 L154.68,94.84 L155.18,94.43 L155.68,94.02 L156.18,93.62 L156.68,93.21 L157.18,92.81 L157.68,92.41 L158.18,92.02 L158.68,91.62 L159.19,91.23 L159.69,90.83 L160.19,90.44 L160.69,90.06 L161.19,89.67 L161.69,89.29 L162.19,88.91 L162.69,88.53 L163.19,88.16 L163.69,87.78 L164.19,87.41 L164.69,87.05 L165.19,86.68 L165.69,86.32 L166.19,85.96 L166.69,85.60 L167.19,85.25 L167.69,84.90 L168.20,84.55 L168.70,84.21 L169.20,83.87 L169.70,83.53 L170.20,83.20 L170.70,82.87 L171.20,82.54 L171.70,82.21 L172.20,81.89 L172.70,81.57 L173.20,81.26 L173.70,80.95 L174.20,80.64 L174.70,80.34 L175.20,80.04 L175.70,79.74 L176.20,79.45 L176.71,79.16 L177.21,78.88 L177.71,78.60 L178.21,78.32 L178.71,78.05 L179.21,77.78 L179.71,77.52 L180.21,77.26 L180.71,77.00 L181.21,76.75 L181.71,76.50 L182.21,76.26 L182.71,76.02 L183.21,75.78 L183.71,75.55 L184.21,75.33 L184.71,75.11 L185.22,74.89 L185.72,74.68 L186.22,74.47 L186.72,74.26 L187.22,74.06 L187.72,73.87 L188.22,73.68 L188.72,73.49 L189.22,73.31 L189.72,73.14 L190.22,72.97 L190.72,72.80 L191.22,72.64 L191.72,72.48 L192.22,72.33 L192.72,72.18 L193.22,72.04 L193.73,71.90 L194.23,71.77 L194.73,71.64 L195.23,71.52 L195.73,71.40 L196.23,71.29 L196.73,71.18 L197.23,71.08 L197.73,70.98 L198.23,70.89 L198.73,70.80 L199.23,70.72 L199.73,70.64 L200.23,70.57 L200.73,70.50 L201.23,70.44 L201.73,70.39 L202.24,70.33 L202.74,70.29 L203.24,70.25 L203.74,70.21 L204.24,70.18 L204.74,70.15 L205.24,70.13 L205.74,70.12 L206.24,70.11 L206.74,70.10 L207.24,70.10 L207.74,70.11 L208.24,70.12 L208.74,70.13 L209.24,70.15 L209.74,70.18 L210.24,70.21 L210.75,70.24 L211.25,70.29 L211.75,70.33 L212.25,70.38 L212.75,70.44 L213.25,70.50 L213.75,70.57 L214.25,70.64 L214.75,70.72 L215.25,70.80 L215.75,70.89 L216.25,70.98 L216.75,71.08 L217.25,71.18 L217.75,71.29 L218.25,71.40 L218.75,71.52 L219.25,71.64 L219.76,71.77 L220.26,71.90 L220.76,72.04 L221.26,72.18 L221.76,72.32 L222.26,72.48 L222.76,72.63 L223.26,72.79 L223.76,72.96 L224.26,73.13 L224.76,73.31 L225.26,73.49 L225.76,73.67 L226.26,73.86 L226.76,74.06 L227.26,74.26 L227.76,74.46 L228.27,74.67 L228.77,74.88 L229.27,75.10 L229.77,75.32 L230.27,75.55 L230.77,75.78 L231.27,76.01 L231.77,76.25 L232.27,76.49 L232.77,76.74 L233.27,76.99 L233.77,77.25 L234.27,77.51 L234.77,77.77 L235.27,78.04 L235.77,78.31 L236.27,78.59 L236.78,78.87 L237.28,79.15 L237.78,79.44 L238.28,79.73 L238.78,80.03 L239.28,80.33 L239.78,80.63 L240.28,80.94 L240.78,81.25 L241.28,81.56 L241.78,81.88 L242.28,82.20 L242.78,82.53 L243.28,82.85 L243.78,83.18 L244.28,83.52 L244.78,83.86 L245.29,84.20 L245.79,84.54 L246.29,84.89 L246.79,85.24 L247.29,85.59 L247.79,85.95 L248.29,86.31 L248.79,86.67 L249.29,87.03 L249.79,87.40 L250.29,87.77 L250.79,88.14 L251.29,88.52 L251.79,88.89 L252.29,89.28 L252.79,89.66 L253.29,90.04 L253.80,90.43 L254.30,90.82 L254.80,91.21 L255.30,91.60 L255.80,92.00 L256.30,92.40 L256.80,92.80 L257.30,93.20 L257.80,93.60 L258.30,94.01 L258.80,94.42 L259.30,94.82 L259.80,95.23 L260.30,95.65 L260.80,96.06 L261.30,96.47 L261.80,96.89 L262.31,97.31 L262.81,97.73 L263.31,98.15 L263.81,98.57 L264.31,98.99 L264.81,99.41 L265.31,99.84 L265.81,100.26 L266.31,100.69 L266.81,101.11 L267.31,101.54 L267.81,101.97 L268.31,102.40 L268.81,102.83 L269.31,103.26 L269.81,103.69 L270.31,104.12 L270.81,104.55 L271.32,104.98 L271.82,105.41 L272.32,105.84 L272.82,106.27 L273.32,106.70 L273.82,107.13 L274.32,107.56 L274.82,107.99 L275.32,108.42 L275.82,108.85 L276.32,109.28 L276.82,109.71 L277.32,110.14 L277.82,110.57 L278.32,111.00 L278.82,111.42 L279.32,111.85 L279.83,112.27 L280.33,112.70 L280.83,113.12 L281.33,113.54 L281.83,113.96 L282.33,114.38 L282.83,114.80 L283.33,115.22 L283.83,115.63 L284.33,116.05 L284.83,116.46 L285.33,116.87 L285.83,117.28 L286.33,117.69 L286.83,118.10 L287.33,118.50 L287.83,118.90 L288.34,119.31 L288.84,119.70 L289.34,120.10 L289.84,120.50 L290.34,120.89 L290.84,121.28 L291.34,121.67 L291.84,122.06 L292.34,122.44 L292.84,122.82 L293.34,123.20 L293.84,123.58 L294.34,123.95 L294.84,124.33 L295.34,124.70 L295.84,125.06 L296.34,125.43 L296.85,125.79 L297.35,126.15 L297.85,126.50 L298.35,126.85 L298.85,127.20 L299.35,127.55 L299.85,127.89 L300.35,128.23 L300.85,128.57 L301.35,128.90 L301.85,129.23 L302.35,129.56 L302.85,129.88 L303.35,130.20 L303.85,130.52 L304.35,130.83 L304.85,131.14 L305.36,131.45 L305.86,131.75 L306.36,132.05 L306.86,132.34 L307.36,132.63 L307.86,132.92 L308.36,133.20 L308.86,133.48 L309.36,133.76 L309.86,134.03 L310.36,134.30 L310.86,134.56 L311.36,134.82 L311.86,135.07 L312.36,135.32 L312.86,135.57 L313.36,135.81 L313.86,136.05 L314.37,136.28 L314.87,136.51 L315.37,136.74 L315.87,136.96 L316.37,137.17 L316.87,137.39 L317.37,137.59 L317.87,137.80 L318.37,137.99 L318.87,138.19 L319.37,138.38 L319.87,138.56 L320.37,138.74 L320.87,138.91 L321.37,139.08 L321.87,139.25 L322.37,139.41 L322.88,139.56 L323.38,139.71 L323.88,139.86 L324.38,140.00 L324.88,140.14 L325.38,140.27 L325.88,140.39 L326.38,140.51 L326.88,140.63 L327.38,140.74 L327.88,140.85 L328.38,140.95 L328.88,141.04 L329.38,141.14 L329.88,141.22 L330.38,141.30 L330.88,141.38 L331.39,141.45 L331.89,141.51 L332.39,141.57 L332.89,141.63 L333.39,141.68 L333.89,141.73 L334.39,141.77 L334.89,141.80 L335.39,141.83 L335.89,141.85 L336.39,141.87 L336.89,141.89 L337.39,141.90 L337.89,141.90 L338.39,141.90 L338.89,141.89 L339.39,141.88 L339.90,141.86 L340.40,141.84 L340.90,141.81 L341.40,141.78 L341.90,141.74 L342.40,141.70 L342.90,141.65 L343.40,141.60 L343.90,141.54 L344.40,141.48 L344.90,141.41 L345.40,141.34 L345.90,141.26 L346.40,141.17 L346.90,141.09 L347.40,140.99 L347.90,140.89 L348.41,140.79 L348.91,140.68 L349.41,140.57 L349.91,140.45 L350.41,140.32 L350.91,140.19 L351.41,140.06 L351.91,139.92 L352.41,139.78 L352.91,139.63 L353.41,139.48 L353.91,139.32 L354.41,139.16 L354.91,138.99 L355.41,138.82 L355.91,138.64 L356.41,138.46 L356.92,138.27 L357.42,138.08 L357.92,137.88 L358.42,137.68 L358.92,137.48 L359.42,137.27 L359.92,137.06 L360.42,136.84 L360.92,136.61 L361.42,136.39 L361.92,136.16 L362.42,135.92 L362.92,135.68 L363.42,135.43 L363.92,135.19 L364.42,134.93 L364.92,134.68 L365.42,134.41 L365.93,134.15 L366.43,133.88 L366.93,133.61 L367.43,133.33 L367.93,133.05 L368.43,132.76 L368.93,132.47 L369.43,132.18 L369.93,131.88 L370.43,131.58 L370.93,131.28 L371.43,130.97 L371.93,130.66 L372.43,130.34 L372.93,130.03 L373.43,129.70 L373.93,129.38 L374.44,129.05 L374.94,128.72 L375.44,128.38 L375.94,128.04 L376.44,127.70 L376.94,127.36 L377.44,127.01 L377.94,126.66 L378.44,126.30 L378.94,125.95 L379.44,125.59 L379.94,125.22 L380.44,124.86 L380.94,124.49 L381.44,124.12 L381.94,123.75 L382.44,123.37 L382.95,122.99 L383.45,122.61 L383.95,122.23 L384.45,121.84 L384.95,121.46 L385.45,121.07 L385.95,120.67 L386.45,120.28 L386.95,119.88 L387.45,119.48 L387.95,119.08 L388.45,118.68 L388.95,118.28 L389.45,117.87 L389.95,117.46 L390.45,117.05 L390.95,116.64 L391.46,116.23 L391.96,115.82 L392.46,115.40 L392.96,114.99 L393.46,114.57 L393.96,114.15 L394.46,113.73 L394.96,113.31 L395.46,112.88 L395.96,112.46 L396.46,112.04 L396.96,111.61 L397.46,111.19 L397.96,110.76 L398.46,110.33 L398.96,109.90 L399.46,109.47 L399.97,109.05 L400.47,108.62 L400.97,108.19 L401.47,107.76 L401.97,107.32 L402.47,106.89 L402.97,106.46 L403.47,106.03 L403.97,105.60 L404.47,105.17 L404.97,104.74 L405.47,104.31 L405.97,103.88 L406.47,103.45 L406.97,103.02 L407.47,102.59 L407.97,102.16 L408.47,101.73 L408.98,101.31 L409.48,100.88 L409.98,100.45 L410.48,100.03 L410.98,99.60 L411.48,99.18 L411.98,98.76 L412.48,98.33 L412.98,97.91 L413.48,97.49 L413.98,97.08 L414.48,96.66 L414.98,96.24 L415.48,95.83 L415.98,95.42 L416.48,95.01 L416.98,94.60 L417.49,94.19 L417.99,93.78 L418.49,93.38 L418.99,92.98 L419.49,92.58 L419.99,92.18 L420.49,91.78 L420.99,91.39 L421.49,90.99 L421.99,90.60 L422.49,90.21 L422.99,89.83 L423.49,89.45 L423.99,89.06 L424.49,88.69 L424.99,88.31 L425.49,87.94 L426.00,87.56 L426.50,87.20 L427.00,86.83 L427.50,86.47 L428.00,86.11 L428.50,85.75 L429.00,85.40 L429.50,85.04 L430.00,84.70" style="stroke-width: 2; stroke: rgb(74, 144, 226); stroke-opacity: 0.8;"/></g></g><g class="test-xtl" style="font-family: &quot;Open Sans&quot;, verdana, arial, sans-serif;"/><g class="test-ytl" style="font-family: &quot;Open Sans&quot;, verdana, arial, sans-serif;"/><rect class="real" x="1" y="1" width="428" height="198" style="fill: transparent; stroke: none;"/></g></g></g><g class="arrow-line"><path class="connection real" stroke-dasharray="6 6" d="  M22,88.5 L447,88.5" style="stroke: rgb(0, 0, 0); stroke-width: 1; fill: none; fill-opacity: 1;"/></g><g class="arrow-line"><path class="connection real" stroke-dasharray="6 6" d="  M22,163.5 L447,163.5" style="stroke: rgb(0, 0, 0); stroke-width: 1; fill: none; fill-opacity: 1;"/></g><g class="arrow-line"><path class="connection real" stroke-dasharray="1.125 3.35" d="  M98,127.5 L98,162.5" style="stroke: rgb(0, 0, 0); stroke-width: 1; fill: none; fill-opacity: 1;"/></g><g class="arrow-line"><path class="connection real" stroke-dasharray="1.125 3.35" d="  M359,126.5 L359,161.5" style="stroke: rgb(0, 0, 0); stroke-width: 1; fill: none; fill-opacity: 1;"/></g><g/></g><g/><g/><g/></svg>
        <svg xmlns="http://www.w3.org/2000/svg" xmlns:xlink="http://www.w3.org/1999/xlink" width="474" height="248" style="width:474px;height:248px;font-family:Asana-Math, Asana;background:#FFF;"><g><g><g><g transform="matrix(1,0,0,1,209.46875,31)"><path transform="matrix(0.017,0,0,-0.017,0,0)" d="M-7 -180C-8 -187 -8 -193 -8 -198C-8 -241 29 -276 74 -276C180 -276 290 -152 349 33L490 473L479 482C450 471 427 465 405 463L370 331C358 284 323 211 290 162C255 111 206 67 184 67C172 67 163 90 164 115L180 322C182 353 184 391 184 419C184 464 177 482 160 482C147 482 133 475 85 442L3 386L14 368L64 398C69 401 80 410 89 410C103 410 111 391 111 358C111 357 111 351 110 343L93 100L92 60C92 18 110 -11 135 -11C172 -11 256 74 331 187L282 16C231 -161 181 -234 111 -234C76 -234 49 -207 49 -172C49 -167 50 -159 51 -150L41 -146Z" stroke="rgb(0,0,0)" stroke-opacity="1" stroke-width="8" fill="rgb(0,0,0)" fill-opacity="1"></path></g></g></g></g><g><g><g><g transform="matrix(1,0,0,1,439.46875,144)"><path transform="matrix(0.017,0,0,-0.017,0,0)" d="M9 1C24 -7 40 -11 52 -11C85 -11 124 18 155 65L231 182L242 113C255 28 278 -11 314 -11C336 -11 368 6 400 35L449 79L440 98C404 68 379 53 363 53C348 53 335 63 325 83C316 102 305 139 300 168L282 269L317 318C364 383 391 406 422 406C438 406 450 398 455 383L469 387L484 472C472 479 463 482 454 482C414 482 374 446 312 354L275 299L269 347C257 446 230 482 171 482C145 482 123 474 114 461L56 378L73 368C103 402 123 416 142 416C175 416 197 375 214 277L225 215L185 153C142 86 108 54 80 54C65 54 54 58 52 63L41 91L21 88C21 53 13 27 9 1Z" stroke="rgb(0,0,0)" stroke-opacity="1" stroke-width="8" fill="rgb(0,0,0)" fill-opacity="1"></path></g></g></g></g><g><g><g><g transform="matrix(1,0,0,1,228.5,144)"><path transform="matrix(0.017,0,0,-0.017,0,0)" d="M748 425C748 603 644 706 464 706C227 706 53 523 53 272C53 83 147 -18 323 -18C595 -18 748 207 748 425ZM660 409C660 221 571 24 360 24C216 24 141 110 141 277C141 425 199 664 433 664C549 664 660 610 660 409Z" stroke="rgb(0,0,0)" stroke-opacity="1" stroke-width="8" fill="rgb(0,0,0)" fill-opacity="1"></path></g></g></g></g><g><g><g><g transform="matrix(1,0,0,1,267.5,61)"><path transform="matrix(0.017,0,0,-0.017,0,0)" d="M-7 -180C-8 -187 -8 -193 -8 -198C-8 -241 29 -276 74 -276C180 -276 290 -152 349 33L490 473L479 482C450 471 427 465 405 463L370 331C358 284 323 211 290 162C255 111 206 67 184 67C172 67 163 90 164 115L180 322C182 353 184 391 184 419C184 464 177 482 160 482C147 482 133 475 85 442L3 386L14 368L64 398C69 401 80 410 89 410C103 410 111 391 111 358C111 357 111 351 110 343L93 100L92 60C92 18 110 -11 135 -11C172 -11 256 74 331 187L282 16C231 -161 181 -234 111 -234C76 -234 49 -207 49 -172C49 -167 50 -159 51 -150L41 -146Z" stroke="rgb(0,0,0)" stroke-opacity="1" stroke-width="8" fill="rgb(0,0,0)" fill-opacity="1"></path></g></g><g><g transform="matrix(1,0,0,1,281.078125,61)"><path transform="matrix(0.017,0,0,-0.017,0,0)" d="M604 347L604 406L65 406L65 347ZM604 134L604 193L65 193L65 134Z" stroke="rgb(0,0,0)" stroke-opacity="1" stroke-width="8" fill="rgb(0,0,0)" fill-opacity="1"></path></g></g><g><g><g transform="matrix(1,0,0,1,297.53125,61)"><path transform="matrix(0.017,0,0,-0.017,0,0)" d="M399 311C399 357 404 398 413 434C381 478 338 497 293 497C169 497 25 361 25 224C25 219 26 215 26 210C26 75 121 -20 255 -20C307 -20 382 -1 392 14L413 46L403 61C366 41 334 32 298 32C187 32 114 118 114 250C114 357 164 417 254 417C298 417 346 397 364 372L371 311ZM722 469C576 469 475 366 475 217C475 76 564 -20 693 -20C847 -20 957 87 957 237C957 372 859 469 722 469ZM704 436C796 436 864 336 864 200C864 85 813 13 732 13C634 13 568 109 568 251C568 371 616 436 704 436ZM1029 143C1029 74 1026 44 1018 4C1070 -13 1109 -20 1155 -20C1286 -20 1379 50 1379 148C1379 321 1095 228 1095 358C1095 408 1130 436 1191 436C1258 436 1309 401 1309 354L1309 331L1337 331C1338 389 1339 413 1342 444C1289 462 1253 469 1212 469C1096 469 1025 414 1025 324C1025 276 1047 242 1093 221C1211 169 1305 195 1305 109C1305 55 1255 17 1184 17C1111 17 1059 52 1059 102L1059 143Z" stroke="rgb(0,0,0)" stroke-opacity="1" stroke-width="8" fill="rgb(0,0,0)" fill-opacity="1"></path></g></g></g><g><g transform="matrix(1,0,0,1,324.921875,61)"><path transform="matrix(0.017,0,0,-0.017,0,0)" d="M9 1C24 -7 40 -11 52 -11C85 -11 124 18 155 65L231 182L242 113C255 28 278 -11 314 -11C336 -11 368 6 400 35L449 79L440 98C404 68 379 53 363 53C348 53 335 63 325 83C316 102 305 139 300 168L282 269L317 318C364 383 391 406 422 406C438 406 450 398 455 383L469 387L484 472C472 479 463 482 454 482C414 482 374 446 312 354L275 299L269 347C257 446 230 482 171 482C145 482 123 474 114 461L56 378L73 368C103 402 123 416 142 416C175 416 197 375 214 277L225 215L185 153C142 86 108 54 80 54C65 54 54 58 52 63L41 91L21 88C21 53 13 27 9 1Z" stroke="rgb(0,0,0)" stroke-opacity="1" stroke-width="8" fill="rgb(0,0,0)" fill-opacity="1"></path></g></g></g></g><g><g><g><g transform="matrix(1,0,0,1,206.5,181)"><path transform="matrix(0.017,0,0,-0.017,0,0)" d="M555 243L555 299L51 299L51 243Z" stroke="rgb(0,0,0)" stroke-opacity="1" stroke-width="8" fill="rgb(0,0,0)" fill-opacity="1"></path></g></g><g><g transform="matrix(1,0,0,1,216.796875,181)"><path transform="matrix(0.017,0,0,-0.017,0,0)" d="M418 -3L418 27L366 30C311 33 301 44 301 96L301 700L60 598L67 548L217 614L217 96C217 44 206 33 152 30L96 27L96 -3C250 0 250 0 261 0C292 0 402 -3 418 -3Z" stroke="rgb(0,0,0)" stroke-opacity="1" stroke-width="8" fill="rgb(0,0,0)" fill-opacity="1"></path></g></g></g></g><g><g><g><g transform="matrix(1,0,0,1,215.46875,85)"><path transform="matrix(0.017,0,0,-0.017,0,0)" d="M418 -3L418 27L366 30C311 33 301 44 301 96L301 700L60 598L67 548L217 614L217 96C217 44 206 33 152 30L96 27L96 -3C250 0 250 0 261 0C292 0 402 -3 418 -3Z" stroke="rgb(0,0,0)" stroke-opacity="1" stroke-width="8" fill="rgb(0,0,0)" fill-opacity="1"></path></g></g></g></g><g><g><g><g transform="matrix(1,0,0,1,88.5,122)"><path transform="matrix(0.017,0,0,-0.017,0,0)" d="M555 243L555 299L51 299L51 243Z" stroke="rgb(0,0,0)" stroke-opacity="1" stroke-width="8" fill="rgb(0,0,0)" fill-opacity="1"></path></g></g><g><g transform="matrix(1,0,0,1,98.796875,122)"><path transform="matrix(0.017,0,0,-0.017,0,0)" d="M525 42C469 42 464 125 465 166C466 251 494 333 537 405L599 418C602 435 608 452 613 467C459 461 300 463 145 466C80 467 66 389 47 340C46 332 59 331 63 328L63 332C106 395 130 405 205 405L228 405C188 266 161 129 98 -2L98 -12C118 -6 153 1 170 13C211 141 240 274 268 405L495 405C438 318 397 213 395 108C395 59 410 -15 471 -15C512 -15 568 25 598 51L598 66L586 66L586 67C568 56 548 42 525 42Z" stroke="rgb(0,0,0)" stroke-opacity="1" stroke-width="8" fill="rgb(0,0,0)" fill-opacity="1"></path></g></g></g></g><g><g><g><g transform="matrix(1,0,0,1,354.5,122)"><path transform="matrix(0.017,0,0,-0.017,0,0)" d="M525 42C469 42 464 125 465 166C466 251 494 333 537 405L599 418C602 435 608 452 613 467C459 461 300 463 145 466C80 467 66 389 47 340C46 332 59 331 63 328L63 332C106 395 130 405 205 405L228 405C188 266 161 129 98 -2L98 -12C118 -6 153 1 170 13C211 141 240 274 268 405L495 405C438 318 397 213 395 108C395 59 410 -15 471 -15C512 -15 568 25 598 51L598 66L586 66L586 67C568 56 548 42 525 42Z" stroke="rgb(0,0,0)" stroke-opacity="1" stroke-width="8" fill="rgb(0,0,0)" fill-opacity="1"></path></g></g></g></g><g><g><g><g transform="matrix(1,0,0,1,261.5,142)"><path transform="matrix(0.017,0,0,-0.017,0,0)" d="M525 42C469 42 464 125 465 166C466 251 494 333 537 405L599 418C602 435 608 452 613 467C459 461 300 463 145 466C80 467 66 389 47 340C46 332 59 331 63 328L63 332C106 395 130 405 205 405L228 405C188 266 161 129 98 -2L98 -12C118 -6 153 1 170 13C211 141 240 274 268 405L495 405C438 318 397 213 395 108C395 59 410 -15 471 -15C512 -15 568 25 598 51L598 66L586 66L586 67C568 56 548 42 525 42Z" stroke="rgb(0,0,0)" stroke-opacity="1" stroke-width="8" fill="rgb(0,0,0)" fill-opacity="1"></path></g></g><g><g transform="matrix(1,0,0,1,276,142)"><path transform="matrix(0.017,0,0,-0.017,0,0)" d="M297 714L242 714L-37 -169L18 -169Z" stroke="rgb(0,0,0)" stroke-opacity="1" stroke-width="8" fill="rgb(0,0,0)" fill-opacity="1"></path></g></g><g><g transform="matrix(1,0,0,1,284.265625,142)"><path transform="matrix(0.017,0,0,-0.017,0,0)" d="M16 23L16 -3C203 -3 203 0 239 0C275 0 275 -3 468 -3L468 82C353 77 307 81 122 77L304 270C401 373 431 428 431 503C431 618 353 689 226 689C154 689 105 669 56 619L39 483L68 483L81 529C97 587 133 612 200 612C286 612 341 558 341 473C341 398 299 324 186 204Z" stroke="rgb(0,0,0)" stroke-opacity="1" stroke-width="8" fill="rgb(0,0,0)" fill-opacity="1"></path></g></g></g></g><g><g><g><g transform="matrix(1,0,0,1,163.5,143)"><path transform="matrix(0.017,0,0,-0.017,0,0)" d="M555 243L555 299L51 299L51 243Z" stroke="rgb(0,0,0)" stroke-opacity="1" stroke-width="8" fill="rgb(0,0,0)" fill-opacity="1"></path></g></g><g><g transform="matrix(1,0,0,1,173.796875,143)"><path transform="matrix(0.017,0,0,-0.017,0,0)" d="M525 42C469 42 464 125 465 166C466 251 494 333 537 405L599 418C602 435 608 452 613 467C459 461 300 463 145 466C80 467 66 389 47 340C46 332 59 331 63 328L63 332C106 395 130 405 205 405L228 405C188 266 161 129 98 -2L98 -12C118 -6 153 1 170 13C211 141 240 274 268 405L495 405C438 318 397 213 395 108C395 59 410 -15 471 -15C512 -15 568 25 598 51L598 66L586 66L586 67C568 56 548 42 525 42Z" stroke="rgb(0,0,0)" stroke-opacity="1" stroke-width="8" fill="rgb(0,0,0)" fill-opacity="1"></path></g></g><g><g transform="matrix(1,0,0,1,188.296875,143)"><path transform="matrix(0.017,0,0,-0.017,0,0)" d="M297 714L242 714L-37 -169L18 -169Z" stroke="rgb(0,0,0)" stroke-opacity="1" stroke-width="8" fill="rgb(0,0,0)" fill-opacity="1"></path></g></g><g><g transform="matrix(1,0,0,1,196.5625,143)"><path transform="matrix(0.017,0,0,-0.017,0,0)" d="M16 23L16 -3C203 -3 203 0 239 0C275 0 275 -3 468 -3L468 82C353 77 307 81 122 77L304 270C401 373 431 428 431 503C431 618 353 689 226 689C154 689 105 669 56 619L39 483L68 483L81 529C97 587 133 612 200 612C286 612 341 558 341 473C341 398 299 324 186 204Z" stroke="rgb(0,0,0)" stroke-opacity="1" stroke-width="8" fill="rgb(0,0,0)" fill-opacity="1"></path></g></g></g></g></svg>
</svg>