<svg xmlns="http://www.w3.org/2000/svg" xmlns:xlink="http://www.w3.org/1999/xlink" x="0" y="0" width="476" height="250" style="
        width:476px;
        height:250px;
        background: #FFF;
        fill: none;
">
        <svg xmlns="http://www.w3.org/2000/svg"/>

        <svg xmlns="http://www.w3.org/2000/svg" class="role-diagram-draw-area" style="overflow: visible;"><g class="shapes-region" style="stroke: black; fill: none;"><g class="composite-shape" data-amt="diagram/shapes/plot" transform="matrix(1,0,0,1,23,16)"><g><g/><g><g class="test-xti" style="font-family: Asana-Math, Asana;"><line x1="0" y1="103.99450148933379" x2="426" y2="103.99450148933379" fill="none" stroke="rgb(0,0,0)" stroke-opacity="1" stroke-width="1"/><path d="M421,100.39450148933379 L429,103.99450148933379 L421,107.59450148933378 Z" stroke="none" stroke-width="1" fill="rgb(0,0,0)" fill-opacity="1"/></g><g class="test-yti" style="font-family: Asana-Math, Asana;"><line x1="242.34066468088827" y1="4" x2="242.34066468088827" y2="200" fill="none" stroke="rgb(50,50,50)" stroke-opacity="1" stroke-width="1"/><path d="M238.74066468088827,9 L242.34066468088827,1 L245.94066468088826,9 Z" stroke="none" stroke-width="1" fill="rgb(50,50,50)" fill-opacity="1"/></g><g class="test-plot-expression"><defs><clipPath id="cp6m2xtfvnadg-full-view"><rect x="1" y="1" width="428" height="198"/></clipPath></defs><g clip-path="url(#cp6m2xtfvnadg-full-view)"><path d=" M201.45,26.65 L200.30,26.95 L199.16,27.27 L198.02,27.60 L196.89,27.94 L195.75,28.30 L194.63,28.67 L193.50,29.06 L192.38,29.46 L191.26,29.88 L190.15,30.31 L189.05,30.75 L187.94,31.21 L186.85,31.69 L185.76,32.18 L184.67,32.68 L183.59,33.20 L182.52,33.73 L181.46,34.27 L180.40,34.83 L179.35,35.40 L178.31,35.99 L177.27,36.59 L176.24,37.20 L175.22,37.83 L174.21,38.47 L173.21,39.13 L172.22,39.79 L171.23,40.47 L170.26,41.17 L169.30,41.87 L168.34,42.59 L167.40,43.32 L166.46,44.07 L165.54,44.82 L164.63,45.59 L163.73,46.37 L162.84,47.17 L161.96,47.97 L161.09,48.79 L160.24,49.61 L159.40,50.45 L158.57,51.30 L157.75,52.17 L156.95,53.04 L156.16,53.92 L155.38,54.81 L154.62,55.72 L153.87,56.63 L153.13,57.56 L152.41,58.49 L151.71,59.43 L151.01,60.39 L150.33,61.35 L149.67,62.32 L149.02,63.30 L148.39,64.29 L147.77,65.29 L147.17,66.29 L146.58,67.30 L146.01,68.33 L145.45,69.35 L144.92,70.39 L144.39,71.43 L143.89,72.49 L143.40,73.54 L142.92,74.61 L142.46,75.68 L142.02,76.75 L141.60,77.84 L141.20,78.92 L140.81,80.02 L140.43,81.11 L140.08,82.22 L139.74,83.33 L139.42,84.44 L139.12,85.55 L138.84,86.68 L138.57,87.80 L138.32,88.93 L138.09,90.06 L137.88,91.19 L137.69,92.33 L137.51,93.47 L137.35,94.61 L137.21,95.75 L137.09,96.90 L136.99,98.05 L136.90,99.20 L136.83,100.35 L136.78,101.50 L136.75,102.65 L136.74,103.80 L136.75,104.95 L136.77,106.10 L136.81,107.25 L136.87,108.40 L136.95,109.55 L137.05,110.70 L137.17,111.84 L137.30,112.99 L137.45,114.13 L137.62,115.27 L137.81,116.41 L138.02,117.54 L138.24,118.67 L138.48,119.80 L138.75,120.93 L139.02,122.05 L139.32,123.17 L139.63,124.28 L139.96,125.39 L140.31,126.50 L140.68,127.60 L141.06,128.69 L141.46,129.78 L141.88,130.87 L142.31,131.94 L142.76,133.02 L143.23,134.08 L143.72,135.14 L144.22,136.19 L144.73,137.24 L145.27,138.28 L145.82,139.31 L146.38,140.33 L146.97,141.35 L147.56,142.36 L148.18,143.36 L148.80,144.35 L149.45,145.33 L150.11,146.31 L150.78,147.27 L151.47,148.23 L152.17,149.18 L152.89,150.11 L153.62,151.04 L154.36,151.96 L155.12,152.87 L155.89,153.76 L156.68,154.65 L157.48,155.53 L158.29,156.39 L159.11,157.24 L159.95,158.09 L160.80,158.92 L161.66,159.74 L162.54,160.55 L163.42,161.34 L164.32,162.13 L165.23,162.90 L166.15,163.66 L167.08,164.41 L168.02,165.15 L168.97,165.87 L169.93,166.58 L170.90,167.28 L171.88,167.96 L172.87,168.64 L173.87,169.29 L174.88,169.94 L175.89,170.57 L176.92,171.19 L177.95,171.80 L178.99,172.39 L180.04,172.96 L181.09,173.53 L182.16,174.08 L183.23,174.61 L184.30,175.13 L185.38,175.64 L186.47,176.14 L187.57,176.61 L188.67,177.08 L189.77,177.53 L190.88,177.97 L192.00,178.39 L193.12,178.79 L194.24,179.19 L195.37,179.56 L196.50,179.93 L197.63,180.28 L198.77,180.61 L199.91,180.93 L201.05,181.23 L202.20,181.53 L203.35,181.80 L204.49,182.06 L205.65,182.31 L206.80,182.54 L207.95,182.76 L209.10,182.96 L210.26,183.15 L211.41,183.32 L212.56,183.48 L213.72,183.62 L214.87,183.75 L216.02,183.87 L217.17,183.97 L218.32,184.05 L219.47,184.13 L220.62,184.18 L221.76,184.23 L222.90,184.26 L224.04,184.27 L225.18,184.27 L226.31,184.26 L227.44,184.24 L228.57,184.20 L229.69,184.14 L230.81,184.08 L231.92,183.99 L233.03,183.90 L234.13,183.79 L235.23,183.67 L236.33,183.54 L237.41,183.39 L238.50,183.23 L239.57,183.06 L240.64,182.88 L241.71,182.68 L242.76,182.47 L243.81,182.25 L244.86,182.02 L245.90,181.77 L246.92,181.51 L247.95,181.24 L248.96,180.96 L249.97,180.67 L250.96,180.37 L251.95,180.05 L252.93,179.73 L253.90,179.39 L254.87,179.04 L255.82,178.68 L256.77,178.32 L257.70,177.94 L258.63,177.55 L259.54,177.15 L260.45,176.75 L261.35,176.33 L262.23,175.90 L263.11,175.47 L263.98,175.02 L264.83,174.57 L265.68,174.11 L266.51,173.64 L267.33,173.16 L268.14,172.67 L268.94,172.18 L269.73,171.67 L270.51,171.16 L271.28,170.65 L272.03,170.12 L272.78,169.59 L273.51,169.06 L274.23,168.51 L274.94,167.96 L275.63,167.40 L276.32,166.84 L276.99,166.27 L277.65,165.70 L278.30,165.12 L278.93,164.54 L279.55,163.95 L280.16,163.35 L280.76,162.76 L281.35,162.15 L281.92,161.55 L282.48,160.94 L283.03,160.32 L283.57,159.70 L284.09,159.08 L284.60,158.46 L285.10,157.83 L285.58,157.20 L286.06,156.57 L286.52,155.93 L286.96,155.30 L287.40,154.66 L287.82,154.02 L288.23,153.37 L288.63,152.73 L289.01,152.09 L289.38,151.44 L289.74,150.79 L290.09,150.15 L290.43,149.50 L290.75,148.85 L291.06,148.20 L291.36,147.56 L291.65,146.91 L291.92,146.26 L292.18,145.62 L292.44,144.97 L292.67,144.33 L292.90,143.69 L293.12,143.05 L293.32,142.41 L293.51,141.77 L293.70,141.13 L293.87,140.50 L294.02,139.87 L294.17,139.24 L294.31,138.62 L294.43,137.99 L294.55,137.37 L294.65,136.76 L294.75,136.14 L294.83,135.53 L294.90,134.92 L294.97,134.32 L295.02,133.72 L295.06,133.13 L295.10,132.54 L295.12,131.95 L295.14,131.37 L295.14,130.79 L295.14,130.21 L295.12,129.65 L295.10,129.08 L295.07,128.52 L295.03,127.97 L294.98,127.42 L294.93,126.88 L294.86,126.34 L294.79,125.81 L294.71,125.28 L294.63,124.76 L294.53,124.24 L294.43,123.74 L294.32,123.23 L294.20,122.74 L294.08,122.25 L293.95,121.76 L293.82,121.28 L293.68,120.81 L293.53,120.35 L293.38,119.89 L293.22,119.43 L293.05,118.99 L292.88,118.55 L292.71,118.12 L292.53,117.69 L292.34,117.27 L292.15,116.86 L291.96,116.46 L291.76,116.06 L291.56,115.67 L291.36,115.29 L291.15,114.91 L290.93,114.54 L290.72,114.18 L290.50,113.82 L290.28,113.47 L290.05,113.13 L289.83,112.80 L289.60,112.47 L289.37,112.15 L289.13,111.84 L288.90,111.53 L288.66,111.23 L288.43,110.94 L288.19,110.66 L287.95,110.38 L287.71,110.11 L287.47,109.85 L287.22,109.59 L286.98,109.34 L286.74,109.10 L286.50,108.86 L286.26,108.63 L286.02,108.41 L285.78,108.19 L285.54,107.98 L285.30,107.78 L285.06,107.59 L284.82,107.40 L284.59,107.21 L284.35,107.04 L284.12,106.86 L283.89,106.70 L283.67,106.54 L283.44,106.39 L283.22,106.24 L283.00,106.10 L282.78,105.97 L282.56,105.84 L282.35,105.71 L282.14,105.59 L281.94,105.48 L281.73,105.37 L281.53,105.27 L281.34,105.17 L281.15,105.08 L280.96,104.99 L280.78,104.91 L280.60,104.83 L280.42,104.76 L280.25,104.69 L280.08,104.62 L279.92,104.56 L279.76,104.51 L279.61,104.45 L279.46,104.40 L279.32,104.36 L279.18,104.31 L279.05,104.28 L278.92,104.24 L278.80,104.21 L278.68,104.18 L278.57,104.15 L278.46,104.13 L278.36,104.11 L278.27,104.09 L278.18,104.07 L278.09,104.06 L278.01,104.04 L277.94,104.03 L277.88,104.02 L277.81,104.02 L277.76,104.01 L277.71,104.01 L277.67,104.00 L277.63,104.00 L277.60,104.00 L277.58,104.00 L277.56,103.99 L277.55,103.99 L277.54,103.99 L277.54,103.99 L277.55,103.99 L277.56,103.99 L277.58,103.99 L277.60,103.99 L277.63,103.99 L277.67,103.99 L277.71,103.98 L277.76,103.98 L277.81,103.97 L277.88,103.97 L277.94,103.96 L278.01,103.95 L278.09,103.93 L278.18,103.92 L278.27,103.90 L278.36,103.88 L278.46,103.86 L278.57,103.84 L278.68,103.81 L278.80,103.78 L278.92,103.75 L279.05,103.71 L279.18,103.67 L279.32,103.63 L279.46,103.59 L279.61,103.54 L279.76,103.48 L279.92,103.43 L280.08,103.37 L280.25,103.30 L280.42,103.23 L280.60,103.16 L280.78,103.08 L280.96,103.00 L281.15,102.91 L281.34,102.82 L281.53,102.72 L281.73,102.62 L281.94,102.51 L282.14,102.39 L282.35,102.28 L282.56,102.15 L282.78,102.02 L283.00,101.89 L283.22,101.75 L283.44,101.60 L283.67,101.45 L283.89,101.29 L284.12,101.12 L284.35,100.95 L284.59,100.78 L284.82,100.59 L285.06,100.40 L285.30,100.21 L285.54,100.00 L285.78,99.80 L286.02,99.58 L286.26,99.36 L286.50,99.13 L286.74,98.89 L286.98,98.65 L287.22,98.40 L287.47,98.14 L287.71,97.88 L287.95,97.61 L288.19,97.33 L288.43,97.05 L288.66,96.76 L288.90,96.46 L289.13,96.15 L289.37,95.84 L289.60,95.52 L289.83,95.19 L290.05,94.86 L290.28,94.52 L290.50,94.17 L290.72,93.81 L290.93,93.45 L291.15,93.08 L291.36,92.70 L291.56,92.32 L291.76,91.93 L291.96,91.53 L292.15,91.13 L292.34,90.72 L292.53,90.30 L292.71,89.87 L292.88,89.44 L293.05,89.00 L293.22,88.55 L293.38,88.10 L293.53,87.64 L293.68,87.18 L293.82,86.71 L293.95,86.23 L294.08,85.74 L294.20,85.25 L294.32,84.76 L294.43,84.25 L294.53,83.74 L294.63,83.23 L294.71,82.71 L294.79,82.18 L294.86,81.65 L294.93,81.11 L294.98,80.57 L295.03,80.02 L295.07,79.47 L295.10,78.91 L295.12,78.34 L295.14,77.77 L295.14,77.20 L295.14,76.62 L295.12,76.04 L295.10,75.45 L295.06,74.86 L295.02,74.27 L294.97,73.67 L294.90,73.06 L294.83,72.46 L294.75,71.85 L294.65,71.23 L294.55,70.62 L294.43,70.00 L294.31,69.37 L294.17,68.75 L294.02,68.12 L293.87,67.49 L293.70,66.85 L293.51,66.22 L293.32,65.58 L293.12,64.94 L292.90,64.30 L292.67,63.66 L292.44,63.02 L292.18,62.37 L291.92,61.73 L291.65,61.08 L291.36,60.43 L291.06,59.78 L290.75,59.14 L290.43,58.49 L290.09,57.84 L289.74,57.20 L289.38,56.55 L289.01,55.90 L288.63,55.26 L288.23,54.62 L287.82,53.97 L287.40,53.33 L286.96,52.69 L286.52,52.06 L286.06,51.42 L285.58,50.79 L285.10,50.16 L284.60,49.53 L284.09,48.91 L283.57,48.29 L283.03,47.67 L282.48,47.05 L281.92,46.44 L281.35,45.84 L280.76,45.23 L280.16,44.64 L279.55,44.04 L278.93,43.45 L278.30,42.87 L277.65,42.29 L276.99,41.72 L276.32,41.15 L275.63,40.58 L274.94,40.03 L274.23,39.48 L273.51,38.93 L272.78,38.40 L272.03,37.87 L271.28,37.34 L270.51,36.82 L269.73,36.31 L268.94,35.81 L268.14,35.32 L267.33,34.83 L266.51,34.35 L265.68,33.88 L264.83,33.42 L263.98,32.97 L263.11,32.52 L262.23,32.09 L261.35,31.66 L260.45,31.24 L259.54,30.84 L258.63,30.44 L257.70,30.05 L256.77,29.67 L255.82,29.30 L254.87,28.95 L253.90,28.60 L252.93,28.26 L251.95,27.94 L250.96,27.62 L249.97,27.32 L248.96,27.03 L247.95,26.75 L246.92,26.48 L245.90,26.22 L244.86,25.97 L243.81,25.74 L242.76,25.52 L241.71,25.31 L240.64,25.11 L239.57,24.93 L238.50,24.75 L237.41,24.60 L236.33,24.45 L235.23,24.32 L234.13,24.20 L233.03,24.09 L231.92,23.99 L230.81,23.91 L229.69,23.85 L228.57,23.79 L227.44,23.75 L226.31,23.73 L225.18,23.71 L224.04,23.72 L222.90,23.73 L221.76,23.76 L220.62,23.81 L219.47,23.86 L218.32,23.94 L217.17,24.02 L216.02,24.12 L214.87,24.24 L213.72,24.37 L212.56,24.51 L211.41,24.67 L210.26,24.84 L209.10,25.03 L207.95,25.23 L206.80,25.45 L205.65,25.68 L204.49,25.93 L203.35,26.19 L202.20,26.46 L201.05,26.75 L199.91,27.06 L198.77,27.38 L197.63,27.71 L196.50,28.06 L195.37,28.42 L194.24,28.80 L193.12,29.20 L192.00,29.60 L190.88,30.02 L189.77,30.46 L188.67,30.91 L187.57,31.37 L186.47,31.85 L185.38,32.35 L184.30,32.85 L183.23,33.38 L182.16,33.91 L181.09,34.46 L180.04,35.03 L178.99,35.60 L177.95,36.19 L176.92,36.80 L175.89,37.42 L174.88,38.05 L173.87,38.69 L172.87,39.35 L171.88,40.02 L170.90,40.71 L169.93,41.41 L168.97,42.12 L168.02,42.84 L167.08,43.58 L166.15,44.33 L165.23,45.09 L164.32,45.86 L163.42,46.64 L162.54,47.44 L161.66,48.25 L160.80,49.07 L159.95,49.90 L159.11,50.74 L158.29,51.60 L157.48,52.46 L156.68,53.34 L155.89,54.23 L155.12,55.12 L154.36,56.03 L153.62,56.95 L152.89,57.88 L152.17,58.81 L151.47,59.76 L150.78,60.72 L150.11,61.68 L149.45,62.65 L148.80,63.64 L148.18,64.63 L147.56,65.63 L146.97,66.64 L146.38,67.65 L145.82,68.68 L145.27,69.71 L144.73,70.75 L144.22,71.79 L143.72,72.85 L143.23,73.91 L142.76,74.97 L142.31,76.05 L141.88,77.12 L141.46,78.21 L141.06,79.30 L140.68,80.39 L140.31,81.49 L139.96,82.60 L139.63,83.71 L139.32,84.82 L139.02,85.94 L138.75,87.06 L138.48,88.19 L138.24,89.32 L138.02,90.45 L137.81,91.58 L137.62,92.72 L137.45,93.86 L137.30,95.00 L137.17,96.15 L137.05,97.29 L136.95,98.44 L136.87,99.59 L136.81,100.74 L136.77,101.89 L136.75,103.04 L136.74,104.19 L136.75,105.34 L136.78,106.49 L136.83,107.64 L136.90,108.79 L136.99,109.94 L137.09,111.09 L137.21,112.23 L137.35,113.38 L137.51,114.52 L137.69,115.66 L137.88,116.80 L138.09,117.93 L138.32,119.06 L138.57,120.19 L138.84,121.31 L139.12,122.43 L139.42,123.55 L139.74,124.66 L140.08,125.77 L140.43,126.87 L140.81,127.97 L141.20,129.07 L141.60,130.15 L142.02,131.24 L142.46,132.31 L142.92,133.38 L143.40,134.45 L143.89,135.50 L144.39,136.55 L144.92,137.60 L145.45,138.63 L146.01,139.66 L146.58,140.68 L147.17,141.70 L147.77,142.70 L148.39,143.70 L149.02,144.69 L149.67,145.67 L150.33,146.64 L151.01,147.60 L151.71,148.56 L152.41,149.50 L153.13,150.43 L153.87,151.36 L154.62,152.27 L155.38,153.17 L156.16,154.07 L156.95,154.95 L157.75,155.82 L158.57,156.68 L159.40,157.53 L160.24,158.37 L161.09,159.20 L161.96,160.02 L162.84,160.82 L163.73,161.62 L164.63,162.40 L165.54,163.16 L166.46,163.92 L167.40,164.67 L168.34,165.40 L169.30,166.12 L170.26,166.82 L171.23,167.52 L172.22,168.20 L173.21,168.86 L174.21,169.52 L175.22,170.16 L176.24,170.79 L177.27,171.40 L178.31,172.00 L179.35,172.59 L180.40,173.16 L181.46,173.72 L182.52,174.26 L183.59,174.79 L184.67,175.31 L185.76,175.81 L186.85,176.30 L187.94,176.78 L189.05,177.24 L190.15,177.68 L191.26,178.11 L192.38,178.53 L193.50,178.93 L194.63,179.32 L195.75,179.69 L196.89,180.05 L198.02,180.39 L199.16,180.72 L200.30,181.04 L201.45,181.34" style="stroke-width: 2; stroke: rgb(68, 128, 194); stroke-opacity: 1;"/></g></g><g class="test-xtl" style="font-family: &quot;Open Sans&quot;, verdana, arial, sans-serif;"/><g class="test-ytl" style="font-family: &quot;Open Sans&quot;, verdana, arial, sans-serif;"/><rect class="real" x="1" y="1" width="428" height="198" style="fill: transparent; stroke: none;"/></g></g></g><g/></g><g/><g/><g/></svg>
        <svg xmlns="http://www.w3.org/2000/svg" xmlns:xlink="http://www.w3.org/1999/xlink" width="474" height="248" style="width:474px;height:248px;font-family:Asana-Math, Asana;background:#FFF;"></svg>
</svg>